<?xml version="1.0" encoding="utf-8" standalone="no"?>
<!DOCTYPE svg PUBLIC "-//W3C//DTD SVG 1.1//EN"
  "http://www.w3.org/Graphics/SVG/1.1/DTD/svg11.dtd">
<svg xmlns:xlink="http://www.w3.org/1999/xlink" width="711.01281pt" height="68.790746pt" viewBox="0 0 711.01281 68.790746" xmlns="http://www.w3.org/2000/svg" version="1.1">
 <metadata>
  <rdf:RDF xmlns:dc="http://purl.org/dc/elements/1.1/" xmlns:cc="http://creativecommons.org/ns#" xmlns:rdf="http://www.w3.org/1999/02/22-rdf-syntax-ns#">
   <cc:Work>
    <dc:type rdf:resource="http://purl.org/dc/dcmitype/StillImage"/>
    <dc:date>2026-09-10T10:35:42.363265</dc:date>
    <dc:format>image/svg+xml</dc:format>
    <dc:creator>
     <cc:Agent>
      <dc:title>Matplotlib v3.6.0, https://matplotlib.org/</dc:title>
     </cc:Agent>
    </dc:creator>
   </cc:Work>
  </rdf:RDF>
 </metadata>
 <defs>
  <style type="text/css">*{stroke-linejoin: round; stroke-linecap: butt}</style>
 </defs>
 <g id="figure_1">
  <g id="patch_1">
   <path d="M 0 68.790746 
L 711.01281 68.790746 
L 711.01281 0 
L 0 0 
z
" style="fill: #ffffff"/>
  </g>
  <g id="axes_1">
   <g id="patch_2">
    <path d="M 37.027656 29.157621 
L 702.724675 29.157621 
L 702.724675 24.036875 
L 37.027656 24.036875 
z
" style="fill: #ffffff"/>
   </g>
   <g id="matplotlib.axis_1">
    <g id="xtick_1">
     <g id="line2d_1">
      <path d="M 49.829522 29.157621 
L 49.829522 24.036875 
" clip-path="url(#pa0717da1f9)" style="fill: none; stroke-dasharray: 2.96,1.28; stroke-dashoffset: 0; stroke: #b0b0b0; stroke-opacity: 0.5; stroke-width: 0.8"/>
     </g>
     <g id="line2d_2">
      <defs>
       <path id="m12e6103039" d="M 0 0 
L 0 3.5 
" style="stroke: #000000; stroke-width: 0.8"/>
      </defs>
      <g>
       <use xlink:href="#m12e6103039" x="49.829522" y="29.157621" style="stroke: #000000; stroke-width: 0.8"/>
      </g>
     </g>
     <g id="text_1">
      <!-- 0 -->
      <g transform="translate(45.959522 44.748871) scale(0.12 -0.12)">
       <defs>
        <path id="GoogleSans-Regular-30" d="M 2061 -102 
Q 1542 -102 1142 202 
Q 742 506 528 1027 
Q 314 1549 314 2189 
Q 314 2829 528 3350 
Q 742 3872 1139 4176 
Q 1536 4480 2061 4480 
Q 2586 4480 2982 4176 
Q 3379 3872 3596 3350 
Q 3814 2829 3814 2189 
Q 3814 1549 3596 1027 
Q 3379 506 2979 202 
Q 2579 -102 2061 -102 
z
M 2061 416 
Q 2426 416 2694 649 
Q 2963 883 3110 1286 
Q 3258 1690 3258 2189 
Q 3258 2688 3110 3091 
Q 2963 3494 2694 3728 
Q 2426 3962 2061 3962 
Q 1696 3962 1427 3728 
Q 1158 3494 1014 3091 
Q 870 2688 870 2189 
Q 870 1690 1014 1286 
Q 1158 883 1427 649 
Q 1696 416 2061 416 
z
" transform="scale(0.015625)"/>
       </defs>
       <use xlink:href="#GoogleSans-Regular-30"/>
      </g>
     </g>
    </g>
    <g id="xtick_2">
     <g id="line2d_3">
      <path d="M 177.84818 29.157621 
L 177.84818 24.036875 
" clip-path="url(#pa0717da1f9)" style="fill: none; stroke-dasharray: 2.96,1.28; stroke-dashoffset: 0; stroke: #b0b0b0; stroke-opacity: 0.5; stroke-width: 0.8"/>
     </g>
     <g id="line2d_4">
      <g>
       <use xlink:href="#m12e6103039" x="177.84818" y="29.157621" style="stroke: #000000; stroke-width: 0.8"/>
      </g>
     </g>
     <g id="text_2">
      <!-- 200 -->
      <g transform="translate(166.952555 44.748871) scale(0.12 -0.12)">
       <defs>
        <path id="GoogleSans-Regular-32" d="M 288 544 
Q 1542 1805 1894 2189 
Q 2221 2541 2336 2739 
Q 2451 2938 2451 3219 
Q 2451 3405 2355 3577 
Q 2259 3750 2070 3856 
Q 1882 3962 1619 3962 
Q 1274 3962 1062 3760 
Q 851 3558 787 3322 
L 294 3520 
Q 352 3725 518 3945 
Q 685 4166 966 4323 
Q 1248 4480 1632 4480 
Q 2035 4480 2345 4307 
Q 2656 4134 2829 3846 
Q 3002 3558 3002 3226 
Q 3002 2554 2298 1837 
L 986 518 
L 3053 518 
L 3053 0 
L 288 0 
L 288 544 
z
" transform="scale(0.015625)"/>
       </defs>
       <use xlink:href="#GoogleSans-Regular-32"/>
       <use xlink:href="#GoogleSans-Regular-30" x="52.599991"/>
       <use xlink:href="#GoogleSans-Regular-30" x="117.099976"/>
      </g>
     </g>
    </g>
    <g id="xtick_3">
     <g id="line2d_5">
      <path d="M 305.866837 29.157621 
L 305.866837 24.036875 
" clip-path="url(#pa0717da1f9)" style="fill: none; stroke-dasharray: 2.96,1.28; stroke-dashoffset: 0; stroke: #b0b0b0; stroke-opacity: 0.5; stroke-width: 0.8"/>
     </g>
     <g id="line2d_6">
      <g>
       <use xlink:href="#m12e6103039" x="305.866837" y="29.157621" style="stroke: #000000; stroke-width: 0.8"/>
      </g>
     </g>
     <g id="text_3">
      <!-- 400 -->
      <g transform="translate(294.569025 44.748871) scale(0.12 -0.12)">
       <defs>
        <path id="GoogleSans-Regular-34" d="M 2387 941 
L 288 941 
L 288 1350 
L 2336 4378 
L 2925 4378 
L 2925 1453 
L 3488 1453 
L 3488 941 
L 2925 941 
L 2925 0 
L 2387 0 
L 2387 941 
z
M 2387 1453 
L 2387 3584 
L 2362 3584 
L 909 1453 
L 2387 1453 
z
" transform="scale(0.015625)"/>
       </defs>
       <use xlink:href="#GoogleSans-Regular-34"/>
       <use xlink:href="#GoogleSans-Regular-30" x="59.299988"/>
       <use xlink:href="#GoogleSans-Regular-30" x="123.799973"/>
      </g>
     </g>
    </g>
    <g id="xtick_4">
     <g id="line2d_7">
      <path d="M 433.885495 29.157621 
L 433.885495 24.036875 
" clip-path="url(#pa0717da1f9)" style="fill: none; stroke-dasharray: 2.96,1.28; stroke-dashoffset: 0; stroke: #b0b0b0; stroke-opacity: 0.5; stroke-width: 0.8"/>
     </g>
     <g id="line2d_8">
      <g>
       <use xlink:href="#m12e6103039" x="433.885495" y="29.157621" style="stroke: #000000; stroke-width: 0.8"/>
      </g>
     </g>
     <g id="text_4">
      <!-- 600 -->
      <g transform="translate(422.803307 44.748871) scale(0.12 -0.12)">
       <defs>
        <path id="GoogleSans-Regular-36" d="M 1786 -102 
Q 1350 -102 1008 109 
Q 666 320 477 656 
Q 288 992 288 1363 
Q 288 1715 432 2038 
Q 576 2362 845 2758 
L 1990 4480 
L 2426 4179 
L 1325 2637 
L 1338 2624 
Q 1562 2778 1901 2778 
Q 2234 2778 2554 2592 
Q 2874 2406 3075 2083 
Q 3277 1760 3277 1363 
Q 3277 979 3072 643 
Q 2867 307 2524 102 
Q 2182 -102 1786 -102 
z
M 1786 416 
Q 2042 416 2259 541 
Q 2477 666 2605 880 
Q 2733 1094 2733 1357 
Q 2733 1613 2605 1827 
Q 2477 2042 2259 2166 
Q 2042 2291 1786 2291 
Q 1530 2291 1309 2166 
Q 1088 2042 960 1827 
Q 832 1613 832 1357 
Q 832 1094 960 880 
Q 1088 666 1309 541 
Q 1530 416 1786 416 
z
" transform="scale(0.015625)"/>
       </defs>
       <use xlink:href="#GoogleSans-Regular-36"/>
       <use xlink:href="#GoogleSans-Regular-30" x="55.699997"/>
       <use xlink:href="#GoogleSans-Regular-30" x="120.199982"/>
      </g>
     </g>
    </g>
    <g id="xtick_5">
     <g id="line2d_9">
      <path d="M 561.904152 29.157621 
L 561.904152 24.036875 
" clip-path="url(#pa0717da1f9)" style="fill: none; stroke-dasharray: 2.96,1.28; stroke-dashoffset: 0; stroke: #b0b0b0; stroke-opacity: 0.5; stroke-width: 0.8"/>
     </g>
     <g id="line2d_10">
      <g>
       <use xlink:href="#m12e6103039" x="561.904152" y="29.157621" style="stroke: #000000; stroke-width: 0.8"/>
      </g>
     </g>
     <g id="text_5">
      <!-- 800 -->
      <g transform="translate(550.858527 44.748871) scale(0.12 -0.12)">
       <defs>
        <path id="GoogleSans-Regular-38" d="M 1766 -102 
Q 1350 -102 1011 70 
Q 672 243 480 540 
Q 288 838 288 1203 
Q 288 1574 489 1852 
Q 691 2131 1018 2291 
L 1018 2317 
Q 762 2470 598 2723 
Q 435 2976 435 3251 
Q 435 3597 604 3878 
Q 774 4160 1078 4320 
Q 1382 4480 1766 4480 
Q 2144 4480 2448 4320 
Q 2752 4160 2921 3878 
Q 3091 3597 3091 3251 
Q 3091 2976 2928 2723 
Q 2765 2470 2515 2317 
L 2515 2291 
Q 2842 2131 3043 1852 
Q 3245 1574 3245 1203 
Q 3245 838 3049 540 
Q 2854 243 2515 70 
Q 2176 -102 1766 -102 
z
M 1766 2547 
Q 2106 2547 2323 2745 
Q 2541 2944 2541 3264 
Q 2541 3584 2320 3773 
Q 2099 3962 1766 3962 
Q 1427 3962 1206 3773 
Q 986 3584 986 3264 
Q 986 2944 1206 2745 
Q 1427 2547 1766 2547 
z
M 1766 416 
Q 2157 416 2422 643 
Q 2688 870 2688 1235 
Q 2688 1587 2422 1814 
Q 2157 2042 1766 2042 
Q 1376 2042 1107 1814 
Q 838 1587 838 1235 
Q 838 870 1107 643 
Q 1376 416 1766 416 
z
" transform="scale(0.015625)"/>
       </defs>
       <use xlink:href="#GoogleSans-Regular-38"/>
       <use xlink:href="#GoogleSans-Regular-30" x="55.099991"/>
       <use xlink:href="#GoogleSans-Regular-30" x="119.599976"/>
      </g>
     </g>
    </g>
    <g id="xtick_6">
     <g id="line2d_11">
      <path d="M 689.92281 29.157621 
L 689.92281 24.036875 
" clip-path="url(#pa0717da1f9)" style="fill: none; stroke-dasharray: 2.96,1.28; stroke-dashoffset: 0; stroke: #b0b0b0; stroke-opacity: 0.5; stroke-width: 0.8"/>
     </g>
     <g id="line2d_12">
      <g>
       <use xlink:href="#m12e6103039" x="689.92281" y="29.157621" style="stroke: #000000; stroke-width: 0.8"/>
      </g>
     </g>
     <g id="text_6">
      <!-- 1000 -->
      <g transform="translate(676.03281 44.748871) scale(0.12 -0.12)">
       <defs>
        <path id="GoogleSans-Regular-31" d="M 1338 3616 
L 570 3066 
L 288 3482 
L 1536 4378 
L 1882 4378 
L 1882 0 
L 1338 0 
L 1338 3616 
z
" transform="scale(0.015625)"/>
       </defs>
       <use xlink:href="#GoogleSans-Regular-31"/>
       <use xlink:href="#GoogleSans-Regular-30" x="37.999985"/>
       <use xlink:href="#GoogleSans-Regular-30" x="102.499969"/>
       <use xlink:href="#GoogleSans-Regular-30" x="166.999954"/>
      </g>
     </g>
    </g>
    <g id="text_7">
     <!-- x [mm] -->
     <g transform="translate(352.788353 59.215434) scale(0.11 -0.11)">
      <defs>
       <path id="GoogleSans-Regular-78" d="M 1235 1658 
L 109 3264 
L 723 3264 
L 1562 2054 
L 2374 3264 
L 3014 3264 
L 1869 1658 
L 3034 0 
L 2400 0 
L 1555 1254 
L 717 0 
L 83 0 
L 1235 1658 
z
" transform="scale(0.015625)"/>
       <path id="GoogleSans-Regular-20" d="M 0 0 
L 0 0 
z
" transform="scale(0.015625)"/>
       <path id="GoogleSans-Regular-5b" d="M 512 5069 
L 1798 5069 
L 1798 4621 
L 1005 4621 
L 1005 -346 
L 1798 -346 
L 1798 -794 
L 512 -794 
L 512 5069 
z
" transform="scale(0.015625)"/>
       <path id="GoogleSans-Regular-6d" d="M 403 3264 
L 922 3264 
L 922 2784 
L 947 2784 
Q 1088 3034 1369 3200 
Q 1651 3366 1965 3366 
Q 2323 3366 2588 3193 
Q 2854 3021 2970 2733 
Q 3142 3021 3427 3193 
Q 3712 3366 4090 3366 
Q 4653 3366 4937 3024 
Q 5222 2682 5222 2093 
L 5222 0 
L 4685 0 
L 4685 2010 
Q 4685 2464 4499 2669 
Q 4314 2874 3949 2874 
Q 3706 2874 3507 2733 
Q 3309 2592 3197 2355 
Q 3085 2118 3085 1843 
L 3085 0 
L 2541 0 
L 2541 2003 
Q 2541 2464 2355 2669 
Q 2170 2874 1811 2874 
Q 1568 2874 1369 2730 
Q 1171 2586 1059 2346 
Q 947 2106 947 1830 
L 947 0 
L 403 0 
L 403 3264 
z
" transform="scale(0.015625)"/>
       <path id="GoogleSans-Regular-5d" d="M 237 -346 
L 1030 -346 
L 1030 4621 
L 237 4621 
L 237 5069 
L 1523 5069 
L 1523 -794 
L 237 -794 
L 237 -346 
z
" transform="scale(0.015625)"/>
      </defs>
      <use xlink:href="#GoogleSans-Regular-78"/>
      <use xlink:href="#GoogleSans-Regular-20" x="48.699997"/>
      <use xlink:href="#GoogleSans-Regular-5b" x="71.899994"/>
      <use xlink:href="#GoogleSans-Regular-6d" x="103.699982"/>
      <use xlink:href="#GoogleSans-Regular-6d" x="191.299973"/>
      <use xlink:href="#GoogleSans-Regular-5d" x="278.899963"/>
     </g>
    </g>
   </g>
   <g id="matplotlib.axis_2">
    <g id="ytick_1">
     <g id="line2d_13">
      <path d="M 37.027656 28.517528 
L 702.724675 28.517528 
" clip-path="url(#pa0717da1f9)" style="fill: none; stroke-dasharray: 2.96,1.28; stroke-dashoffset: 0; stroke: #b0b0b0; stroke-opacity: 0.5; stroke-width: 0.8"/>
     </g>
     <g id="line2d_14">
      <defs>
       <path id="mff25934c44" d="M 0 0 
L -3.5 0 
" style="stroke: #000000; stroke-width: 0.8"/>
      </defs>
      <g>
       <use xlink:href="#mff25934c44" x="37.027656" y="28.517528" style="stroke: #000000; stroke-width: 0.8"/>
      </g>
     </g>
     <g id="text_8">
      <!-- 0 -->
      <g transform="translate(22.287656 32.813153) scale(0.12 -0.12)">
       <use xlink:href="#GoogleSans-Regular-30"/>
      </g>
     </g>
    </g>
    <g id="ytick_2">
     <g id="line2d_15">
      <path d="M 37.027656 25.317062 
L 702.724675 25.317062 
" clip-path="url(#pa0717da1f9)" style="fill: none; stroke-dasharray: 2.96,1.28; stroke-dashoffset: 0; stroke: #b0b0b0; stroke-opacity: 0.5; stroke-width: 0.8"/>
     </g>
     <g id="line2d_16">
      <g>
       <use xlink:href="#mff25934c44" x="37.027656" y="25.317062" style="stroke: #000000; stroke-width: 0.8"/>
      </g>
     </g>
     <g id="text_9">
      <!-- 5 -->
      <g transform="translate(23.272031 29.612687) scale(0.12 -0.12)">
       <defs>
        <path id="GoogleSans-Regular-35" d="M 1754 -102 
Q 1446 -102 1145 29 
Q 845 160 614 425 
Q 384 691 288 1082 
L 768 1274 
Q 870 883 1126 649 
Q 1382 416 1741 416 
Q 2170 416 2442 678 
Q 2714 941 2714 1363 
Q 2714 1779 2445 2051 
Q 2176 2323 1754 2323 
Q 1523 2323 1318 2217 
Q 1114 2112 986 1926 
L 435 2170 
L 717 4378 
L 2982 4378 
L 2982 3859 
L 1165 3859 
L 992 2534 
L 1018 2528 
Q 1357 2816 1850 2816 
Q 2227 2816 2550 2630 
Q 2874 2445 3066 2112 
Q 3258 1779 3258 1370 
Q 3258 960 3062 624 
Q 2867 288 2524 93 
Q 2182 -102 1754 -102 
z
" transform="scale(0.015625)"/>
       </defs>
       <use xlink:href="#GoogleSans-Regular-35"/>
      </g>
     </g>
    </g>
    <g id="text_10">
     <!-- y [mm] -->
     <g transform="translate(15.912344 43.844045) rotate(-90) scale(0.11 -0.11)">
      <defs>
       <path id="GoogleSans-Regular-79" d="M 1402 205 
L 51 3264 
L 640 3264 
L 1664 838 
L 1677 838 
L 2662 3264 
L 3251 3264 
L 1235 -1382 
L 672 -1382 
L 1402 205 
z
" transform="scale(0.015625)"/>
      </defs>
      <use xlink:href="#GoogleSans-Regular-79"/>
      <use xlink:href="#GoogleSans-Regular-20" x="51.599991"/>
      <use xlink:href="#GoogleSans-Regular-5b" x="74.799988"/>
      <use xlink:href="#GoogleSans-Regular-6d" x="106.599976"/>
      <use xlink:href="#GoogleSans-Regular-6d" x="194.199966"/>
      <use xlink:href="#GoogleSans-Regular-5d" x="281.799957"/>
     </g>
    </g>
   </g>
   <g id="line2d_17">
    <path d="M 49.829522 24.676968 
L 61.362734 24.789124 
L 73.536681 25.131839 
L 88.273563 25.786321 
L 138.250817 28.240934 
L 150.424763 28.485482 
L 161.957976 28.496989 
L 174.772656 28.291669 
L 189.509539 27.819616 
L 210.013027 26.909729 
L 235.001654 25.83757 
L 249.097803 25.452954 
L 261.912483 25.3182 
L 274.727164 25.408479 
L 288.182578 25.731143 
L 304.200929 26.348785 
L 349.05231 28.22598 
L 362.507725 28.480011 
L 375.322405 28.496986 
L 388.137085 28.291657 
L 402.873968 27.819597 
L 423.377457 26.909705 
L 448.366084 25.837553 
L 462.462232 25.452945 
L 475.276912 25.318199 
L 488.091593 25.408487 
L 501.547007 25.731158 
L 517.565358 26.348807 
L 562.416739 28.225993 
L 575.872154 28.480016 
L 588.0461 28.497423 
L 599.579313 28.29453 
L 612.393993 27.844716 
L 629.053078 27.0153 
L 663.011981 25.254929 
L 675.826661 24.843299 
L 687.359874 24.682605 
L 689.92281 24.676968 
L 689.92281 24.676968 
" clip-path="url(#pa0717da1f9)" style="fill: none; stroke: #1f77b4; stroke-width: 2; stroke-linecap: square"/>
   </g>
   <g id="patch_3">
    <path d="M 37.027656 29.157621 
L 37.027656 24.036875 
" style="fill: none; stroke: #000000; stroke-width: 0.8; stroke-linejoin: miter; stroke-linecap: square"/>
   </g>
   <g id="patch_4">
    <path d="M 702.724675 29.157621 
L 702.724675 24.036875 
" style="fill: none; stroke: #000000; stroke-width: 0.8; stroke-linejoin: miter; stroke-linecap: square"/>
   </g>
   <g id="patch_5">
    <path d="M 37.027656 29.157621 
L 702.724675 29.157621 
" style="fill: none; stroke: #000000; stroke-width: 0.8; stroke-linejoin: miter; stroke-linecap: square"/>
   </g>
   <g id="patch_6">
    <path d="M 37.027656 24.036875 
L 702.724675 24.036875 
" style="fill: none; stroke: #000000; stroke-width: 0.8; stroke-linejoin: miter; stroke-linecap: square"/>
   </g>
   <g id="text_11">
    <!-- Bahnform $y_+(x)$ (Echter Maßstab 1:1) -->
    <g transform="translate(252.136166 18.036875) scale(0.14 -0.14)">
     <defs>
      <path id="GoogleSans-Regular-42" d="M 512 4582 
L 2157 4582 
Q 2502 4582 2806 4422 
Q 3110 4262 3289 3980 
Q 3469 3699 3469 3347 
Q 3469 3014 3299 2764 
Q 3130 2515 2842 2381 
L 2842 2355 
Q 3187 2240 3404 1958 
Q 3622 1677 3622 1299 
Q 3622 928 3433 630 
Q 3245 333 2928 166 
Q 2611 0 2246 0 
L 512 0 
L 512 4582 
z
M 2157 2605 
Q 2387 2605 2563 2710 
Q 2739 2816 2835 2985 
Q 2931 3155 2931 3334 
Q 2931 3507 2838 3676 
Q 2746 3846 2576 3955 
Q 2406 4064 2182 4064 
L 1056 4064 
L 1056 2605 
L 2157 2605 
z
M 2278 518 
Q 2509 518 2691 633 
Q 2874 749 2973 931 
Q 3072 1114 3072 1306 
Q 3072 1498 2969 1680 
Q 2867 1862 2681 1974 
Q 2496 2086 2253 2086 
L 1056 2086 
L 1056 518 
L 2278 518 
z
" transform="scale(0.015625)"/>
      <path id="GoogleSans-Regular-61" d="M 1446 -102 
Q 1088 -102 806 38 
Q 525 179 371 425 
Q 218 672 218 986 
Q 218 1504 608 1795 
Q 998 2086 1594 2086 
Q 1888 2086 2141 2022 
Q 2394 1958 2528 1875 
L 2528 2074 
Q 2528 2438 2272 2659 
Q 2016 2880 1626 2880 
Q 1357 2880 1123 2761 
Q 890 2643 755 2432 
L 346 2739 
Q 538 3034 877 3200 
Q 1216 3366 1626 3366 
Q 2291 3366 2668 3017 
Q 3046 2669 3046 2067 
L 3046 0 
L 2528 0 
L 2528 467 
L 2502 467 
Q 2362 230 2080 64 
Q 1798 -102 1446 -102 
z
M 1498 378 
Q 1773 378 2009 518 
Q 2246 659 2387 896 
Q 2528 1133 2528 1414 
Q 2374 1517 2150 1581 
Q 1926 1645 1677 1645 
Q 1229 1645 1001 1459 
Q 774 1274 774 979 
Q 774 710 979 544 
Q 1184 378 1498 378 
z
" transform="scale(0.015625)"/>
      <path id="GoogleSans-Regular-68" d="M 403 4582 
L 947 4582 
L 947 3232 
L 922 2784 
L 947 2784 
Q 1082 3034 1373 3200 
Q 1664 3366 2010 3366 
Q 2605 3366 2918 3017 
Q 3232 2669 3232 2093 
L 3232 0 
L 2688 0 
L 2688 2010 
Q 2688 2451 2464 2662 
Q 2240 2874 1882 2874 
Q 1626 2874 1411 2720 
Q 1197 2566 1072 2323 
Q 947 2080 947 1818 
L 947 0 
L 403 0 
L 403 4582 
z
" transform="scale(0.015625)"/>
      <path id="GoogleSans-Regular-6e" d="M 403 3264 
L 922 3264 
L 922 2784 
L 947 2784 
Q 1082 3027 1376 3196 
Q 1670 3366 2003 3366 
Q 2592 3366 2902 3024 
Q 3213 2682 3213 2093 
L 3213 0 
L 2669 0 
L 2669 2010 
Q 2669 2464 2451 2669 
Q 2234 2874 1856 2874 
Q 1594 2874 1386 2726 
Q 1178 2579 1062 2339 
Q 947 2099 947 1837 
L 947 0 
L 403 0 
L 403 3264 
z
" transform="scale(0.015625)"/>
      <path id="GoogleSans-Regular-66" d="M 781 2771 
L 179 2771 
L 179 3264 
L 781 3264 
L 781 3616 
Q 781 3923 921 4153 
Q 1062 4384 1299 4509 
Q 1536 4634 1824 4634 
Q 2099 4634 2304 4557 
L 2304 4026 
Q 2189 4070 2086 4099 
Q 1984 4128 1843 4128 
Q 1632 4128 1478 3977 
Q 1325 3827 1325 3558 
L 1325 3264 
L 2163 3264 
L 2163 2771 
L 1325 2771 
L 1325 0 
L 781 0 
L 781 2771 
z
" transform="scale(0.015625)"/>
      <path id="GoogleSans-Regular-6f" d="M 1907 -102 
Q 1427 -102 1043 128 
Q 659 358 444 755 
Q 230 1152 230 1632 
Q 230 2112 444 2509 
Q 659 2906 1043 3136 
Q 1427 3366 1907 3366 
Q 2387 3366 2771 3136 
Q 3155 2906 3369 2509 
Q 3584 2112 3584 1632 
Q 3584 1152 3369 755 
Q 3155 358 2771 128 
Q 2387 -102 1907 -102 
z
M 1907 390 
Q 2208 390 2467 540 
Q 2726 691 2883 972 
Q 3040 1254 3040 1632 
Q 3040 2010 2883 2291 
Q 2726 2573 2467 2723 
Q 2208 2874 1907 2874 
Q 1606 2874 1344 2723 
Q 1082 2573 925 2291 
Q 768 2010 768 1632 
Q 768 1254 925 972 
Q 1082 691 1344 540 
Q 1606 390 1907 390 
z
" transform="scale(0.015625)"/>
      <path id="GoogleSans-Regular-72" d="M 403 3264 
L 922 3264 
L 922 2739 
L 947 2739 
Q 1043 3008 1318 3184 
Q 1594 3360 1894 3360 
Q 2118 3360 2278 3296 
L 2278 2707 
Q 2074 2810 1818 2810 
Q 1581 2810 1382 2675 
Q 1184 2541 1065 2313 
Q 947 2086 947 1824 
L 947 0 
L 403 0 
L 403 3264 
z
" transform="scale(0.015625)"/>
      <path id="DejaVuSans-Oblique-79" d="M 1588 -325 
Q 1188 -997 936 -1164 
Q 684 -1331 294 -1331 
L -159 -1331 
L -63 -850 
L 269 -850 
Q 509 -850 678 -719 
Q 847 -588 1056 -206 
L 1234 128 
L 459 3500 
L 1069 3500 
L 1650 819 
L 3256 3500 
L 3859 3500 
L 1588 -325 
z
" transform="scale(0.015625)"/>
      <path id="DejaVuSans-2b" d="M 2944 4013 
L 2944 2272 
L 4684 2272 
L 4684 1741 
L 2944 1741 
L 2944 0 
L 2419 0 
L 2419 1741 
L 678 1741 
L 678 2272 
L 2419 2272 
L 2419 4013 
L 2944 4013 
z
" transform="scale(0.015625)"/>
      <path id="DejaVuSans-28" d="M 1984 4856 
Q 1566 4138 1362 3434 
Q 1159 2731 1159 2009 
Q 1159 1288 1364 580 
Q 1569 -128 1984 -844 
L 1484 -844 
Q 1016 -109 783 600 
Q 550 1309 550 2009 
Q 550 2706 781 3412 
Q 1013 4119 1484 4856 
L 1984 4856 
z
" transform="scale(0.015625)"/>
      <path id="DejaVuSans-Oblique-78" d="M 3841 3500 
L 2234 1784 
L 3219 0 
L 2559 0 
L 1819 1388 
L 531 0 
L -166 0 
L 1556 1844 
L 641 3500 
L 1300 3500 
L 1972 2234 
L 3144 3500 
L 3841 3500 
z
" transform="scale(0.015625)"/>
      <path id="DejaVuSans-29" d="M 513 4856 
L 1013 4856 
Q 1481 4119 1714 3412 
Q 1947 2706 1947 2009 
Q 1947 1309 1714 600 
Q 1481 -109 1013 -844 
L 513 -844 
Q 928 -128 1133 580 
Q 1338 1288 1338 2009 
Q 1338 2731 1133 3434 
Q 928 4138 513 4856 
z
" transform="scale(0.015625)"/>
      <path id="GoogleSans-Regular-28" d="M 1542 -870 
Q 1075 -333 739 432 
Q 403 1197 403 2061 
Q 403 2925 739 3689 
Q 1075 4454 1542 4992 
L 1939 4710 
Q 1504 4192 1222 3491 
Q 941 2790 941 2061 
Q 941 1331 1222 630 
Q 1504 -70 1939 -589 
L 1542 -870 
z
" transform="scale(0.015625)"/>
      <path id="GoogleSans-Regular-45" d="M 512 4582 
L 3162 4582 
L 3162 4064 
L 1056 4064 
L 1056 2547 
L 2957 2547 
L 2957 2035 
L 1056 2035 
L 1056 518 
L 3162 518 
L 3162 0 
L 512 0 
L 512 4582 
z
" transform="scale(0.015625)"/>
      <path id="GoogleSans-Regular-63" d="M 1882 -102 
Q 1408 -102 1030 125 
Q 653 352 441 745 
Q 230 1139 230 1632 
Q 230 2125 441 2521 
Q 653 2918 1030 3142 
Q 1408 3366 1882 3366 
Q 2413 3366 2774 3120 
Q 3136 2874 3290 2464 
L 2797 2259 
Q 2675 2560 2435 2717 
Q 2195 2874 1856 2874 
Q 1568 2874 1318 2717 
Q 1069 2560 918 2278 
Q 768 1997 768 1632 
Q 768 1267 918 985 
Q 1069 704 1318 547 
Q 1568 390 1856 390 
Q 2202 390 2451 550 
Q 2701 710 2822 1005 
L 3309 800 
Q 3142 397 2774 147 
Q 2406 -102 1882 -102 
z
" transform="scale(0.015625)"/>
      <path id="GoogleSans-Regular-74" d="M 1658 -51 
Q 1459 -51 1289 13 
Q 1120 77 1005 186 
Q 749 429 749 858 
L 749 2771 
L 179 2771 
L 179 3264 
L 749 3264 
L 749 4186 
L 1293 4186 
L 1293 3264 
L 2093 3264 
L 2093 2771 
L 1293 2771 
L 1293 992 
Q 1293 723 1395 595 
Q 1517 454 1747 454 
Q 1946 454 2106 563 
L 2106 32 
Q 2010 -13 1910 -32 
Q 1811 -51 1658 -51 
z
" transform="scale(0.015625)"/>
      <path id="GoogleSans-Regular-65" d="M 1856 -102 
Q 1389 -102 1017 122 
Q 646 346 438 739 
Q 230 1133 230 1626 
Q 230 2093 425 2493 
Q 621 2893 982 3129 
Q 1344 3366 1811 3366 
Q 2291 3366 2643 3152 
Q 2995 2938 3184 2560 
Q 3373 2182 3373 1696 
Q 3373 1619 3360 1530 
L 774 1530 
Q 794 1158 954 902 
Q 1114 646 1360 518 
Q 1606 390 1875 390 
Q 2515 390 2842 979 
L 3302 755 
Q 3098 365 2733 131 
Q 2368 -102 1856 -102 
z
M 2797 1978 
Q 2784 2182 2681 2387 
Q 2579 2592 2361 2733 
Q 2144 2874 1811 2874 
Q 1427 2874 1158 2627 
Q 890 2381 806 1978 
L 2797 1978 
z
" transform="scale(0.015625)"/>
      <path id="GoogleSans-Regular-4d" d="M 512 4582 
L 1299 4582 
L 2758 826 
L 2784 826 
L 4243 4582 
L 5030 4582 
L 5030 0 
L 4493 0 
L 4493 2912 
L 4518 3782 
L 4493 3782 
L 2995 0 
L 2547 0 
L 1050 3782 
L 1024 3782 
L 1050 2912 
L 1050 0 
L 512 0 
L 512 4582 
z
" transform="scale(0.015625)"/>
      <path id="GoogleSans-Regular-df" d="M 1946 -51 
Q 1754 -51 1594 -19 
L 1594 493 
Q 1773 467 1946 467 
Q 2330 467 2589 716 
Q 2848 966 2848 1338 
Q 2848 1574 2717 1772 
Q 2586 1971 2365 2086 
Q 2144 2202 1894 2202 
L 1645 2202 
L 1645 2701 
L 1818 2701 
Q 2202 2701 2422 2909 
Q 2643 3117 2643 3456 
Q 2643 3770 2416 3968 
Q 2189 4166 1862 4166 
Q 1485 4166 1270 3932 
Q 1056 3699 1056 3302 
L 1056 0 
L 506 0 
L 506 3302 
Q 506 3699 666 4012 
Q 826 4326 1133 4505 
Q 1440 4685 1862 4685 
Q 2246 4685 2550 4525 
Q 2854 4365 3024 4086 
Q 3194 3808 3194 3456 
Q 3194 2778 2624 2490 
L 2624 2464 
Q 2963 2330 3180 2042 
Q 3398 1754 3398 1338 
Q 3398 941 3212 624 
Q 3027 307 2694 128 
Q 2362 -51 1946 -51 
z
" transform="scale(0.015625)"/>
      <path id="GoogleSans-Regular-73" d="M 1542 -102 
Q 1018 -102 666 144 
Q 314 390 166 774 
L 653 992 
Q 774 698 1014 538 
Q 1254 378 1542 378 
Q 1850 378 2067 502 
Q 2285 627 2285 858 
Q 2285 1062 2112 1187 
Q 1939 1312 1568 1402 
L 1171 1504 
Q 781 1600 531 1830 
Q 282 2061 282 2426 
Q 282 2707 451 2921 
Q 621 3136 902 3251 
Q 1184 3366 1510 3366 
Q 1939 3366 2275 3180 
Q 2611 2995 2752 2662 
L 2278 2445 
Q 2061 2880 1504 2880 
Q 1235 2880 1033 2755 
Q 832 2630 832 2438 
Q 832 2259 973 2147 
Q 1114 2035 1395 1965 
L 1869 1843 
Q 2349 1722 2592 1482 
Q 2835 1242 2835 896 
Q 2835 595 2662 368 
Q 2490 141 2195 19 
Q 1901 -102 1542 -102 
z
" transform="scale(0.015625)"/>
      <path id="GoogleSans-Regular-62" d="M 2061 -102 
Q 1690 -102 1392 67 
Q 1094 237 947 480 
L 922 480 
L 922 0 
L 403 0 
L 403 4582 
L 947 4582 
L 947 3232 
L 922 2778 
L 947 2778 
Q 1094 3027 1392 3196 
Q 1690 3366 2061 3366 
Q 2502 3366 2857 3142 
Q 3213 2918 3417 2521 
Q 3622 2125 3622 1632 
Q 3622 1133 3417 739 
Q 3213 346 2857 122 
Q 2502 -102 2061 -102 
z
M 2003 390 
Q 2285 390 2534 544 
Q 2784 698 2931 979 
Q 3078 1261 3078 1632 
Q 3078 2003 2931 2284 
Q 2784 2566 2534 2720 
Q 2285 2874 2003 2874 
Q 1715 2874 1468 2720 
Q 1222 2566 1072 2284 
Q 922 2003 922 1632 
Q 922 1261 1072 979 
Q 1222 698 1468 544 
Q 1715 390 2003 390 
z
" transform="scale(0.015625)"/>
      <path id="GoogleSans-Regular-3a" d="M 762 2483 
Q 589 2483 470 2601 
Q 352 2720 352 2893 
Q 352 3066 470 3184 
Q 589 3302 762 3302 
Q 934 3302 1052 3184 
Q 1171 3066 1171 2893 
Q 1171 2720 1052 2601 
Q 934 2483 762 2483 
z
M 762 -38 
Q 589 -38 470 80 
Q 352 198 352 371 
Q 352 538 470 656 
Q 589 774 762 774 
Q 934 774 1052 656 
Q 1171 538 1171 371 
Q 1171 198 1052 80 
Q 934 -38 762 -38 
z
" transform="scale(0.015625)"/>
      <path id="GoogleSans-Regular-29" d="M 128 -589 
Q 563 -70 844 630 
Q 1126 1331 1126 2061 
Q 1126 2790 844 3491 
Q 563 4192 128 4710 
L 525 4992 
Q 992 4454 1328 3689 
Q 1664 2925 1664 2061 
Q 1664 1197 1328 432 
Q 992 -333 525 -870 
L 128 -589 
z
" transform="scale(0.015625)"/>
     </defs>
     <use xlink:href="#GoogleSans-Regular-42"/>
     <use xlink:href="#GoogleSans-Regular-61" transform="translate(60.599991 0)"/>
     <use xlink:href="#GoogleSans-Regular-68" transform="translate(113.699982 0)"/>
     <use xlink:href="#GoogleSans-Regular-6e" transform="translate(170.099976 0)"/>
     <use xlink:href="#GoogleSans-Regular-66" transform="translate(226.199966 0)"/>
     <use xlink:href="#GoogleSans-Regular-6f" transform="translate(264.09996 0)"/>
     <use xlink:href="#GoogleSans-Regular-72" transform="translate(323.699951 0)"/>
     <use xlink:href="#GoogleSans-Regular-6d" transform="translate(361.199936 0)"/>
     <use xlink:href="#GoogleSans-Regular-20" transform="translate(448.799927 0)"/>
     <use xlink:href="#DejaVuSans-Oblique-79" transform="translate(471.999924 0)"/>
     <use xlink:href="#DejaVuSans-2b" transform="translate(544.817307 -16.40625) scale(0.7)"/>
     <use xlink:href="#DejaVuSans-28" transform="translate(619.841721 0)"/>
     <use xlink:href="#DejaVuSans-Oblique-78" transform="translate(658.855392 0)"/>
     <use xlink:href="#DejaVuSans-29" transform="translate(718.03508 0)"/>
     <use xlink:href="#GoogleSans-Regular-20" transform="translate(757.048752 0)"/>
     <use xlink:href="#GoogleSans-Regular-28" transform="translate(780.248749 0)"/>
     <use xlink:href="#GoogleSans-Regular-45" transform="translate(812.548737 0)"/>
     <use xlink:href="#GoogleSans-Regular-63" transform="translate(867.648727 0)"/>
     <use xlink:href="#GoogleSans-Regular-68" transform="translate(922.248718 0)"/>
     <use xlink:href="#GoogleSans-Regular-74" transform="translate(978.648712 0)"/>
     <use xlink:href="#GoogleSans-Regular-65" transform="translate(1015.248703 0)"/>
     <use xlink:href="#GoogleSans-Regular-72" transform="translate(1071.548691 0)"/>
     <use xlink:href="#GoogleSans-Regular-20" transform="translate(1109.048676 0)"/>
     <use xlink:href="#GoogleSans-Regular-4d" transform="translate(1132.248672 0)"/>
     <use xlink:href="#GoogleSans-Regular-61" transform="translate(1218.848663 0)"/>
     <use xlink:href="#GoogleSans-Regular-df" transform="translate(1271.948654 0)"/>
     <use xlink:href="#GoogleSans-Regular-73" transform="translate(1329.048645 0)"/>
     <use xlink:href="#GoogleSans-Regular-74" transform="translate(1376.348633 0)"/>
     <use xlink:href="#GoogleSans-Regular-61" transform="translate(1412.948624 0)"/>
     <use xlink:href="#GoogleSans-Regular-62" transform="translate(1466.048615 0)"/>
     <use xlink:href="#GoogleSans-Regular-20" transform="translate(1526.248611 0)"/>
     <use xlink:href="#GoogleSans-Regular-31" transform="translate(1549.448608 0)"/>
     <use xlink:href="#GoogleSans-Regular-3a" transform="translate(1587.448593 0)"/>
     <use xlink:href="#GoogleSans-Regular-31" transform="translate(1611.248581 0)"/>
     <use xlink:href="#GoogleSans-Regular-29" transform="translate(1649.248566 0)"/>
    </g>
   </g>
   <g id="legend_1">
    <g id="patch_7">
     <path d="M 227.776166 53.281771 
L 511.976166 53.281771 
Q 513.976166 53.281771 513.976166 51.281771 
L 513.976166 37.181771 
Q 513.976166 35.181771 511.976166 35.181771 
L 227.776166 35.181771 
Q 225.776166 35.181771 225.776166 37.181771 
L 225.776166 51.281771 
Q 225.776166 53.281771 227.776166 53.281771 
z
" style="fill: #ffffff; opacity: 0.8; stroke: #cccccc; stroke-linejoin: miter"/>
    </g>
    <g id="line2d_18">
     <path d="M 229.776166 43.622396 
L 239.776166 43.622396 
L 249.776166 43.622396 
" style="fill: none; stroke: #1f77b4; stroke-width: 2; stroke-linecap: square"/>
    </g>
    <g id="text_12">
     <!-- $y_+(x) = 2.5 \cdot \cos(18.8496 \cdot x) + 1.0 \cdot q(x) + 2.5$ [mm] -->
     <g transform="translate(257.776166 47.122396) scale(0.1 -0.1)">
      <defs>
       <path id="DejaVuSans-3d" d="M 678 2906 
L 4684 2906 
L 4684 2381 
L 678 2381 
L 678 2906 
z
M 678 1631 
L 4684 1631 
L 4684 1100 
L 678 1100 
L 678 1631 
z
" transform="scale(0.015625)"/>
       <path id="DejaVuSans-32" d="M 1228 531 
L 3431 531 
L 3431 0 
L 469 0 
L 469 531 
Q 828 903 1448 1529 
Q 2069 2156 2228 2338 
Q 2531 2678 2651 2914 
Q 2772 3150 2772 3378 
Q 2772 3750 2511 3984 
Q 2250 4219 1831 4219 
Q 1534 4219 1204 4116 
Q 875 4013 500 3803 
L 500 4441 
Q 881 4594 1212 4672 
Q 1544 4750 1819 4750 
Q 2544 4750 2975 4387 
Q 3406 4025 3406 3419 
Q 3406 3131 3298 2873 
Q 3191 2616 2906 2266 
Q 2828 2175 2409 1742 
Q 1991 1309 1228 531 
z
" transform="scale(0.015625)"/>
       <path id="DejaVuSans-2e" d="M 684 794 
L 1344 794 
L 1344 0 
L 684 0 
L 684 794 
z
" transform="scale(0.015625)"/>
       <path id="DejaVuSans-35" d="M 691 4666 
L 3169 4666 
L 3169 4134 
L 1269 4134 
L 1269 2991 
Q 1406 3038 1543 3061 
Q 1681 3084 1819 3084 
Q 2600 3084 3056 2656 
Q 3513 2228 3513 1497 
Q 3513 744 3044 326 
Q 2575 -91 1722 -91 
Q 1428 -91 1123 -41 
Q 819 9 494 109 
L 494 744 
Q 775 591 1075 516 
Q 1375 441 1709 441 
Q 2250 441 2565 725 
Q 2881 1009 2881 1497 
Q 2881 1984 2565 2268 
Q 2250 2553 1709 2553 
Q 1456 2553 1204 2497 
Q 953 2441 691 2322 
L 691 4666 
z
" transform="scale(0.015625)"/>
       <path id="DejaVuSans-22c5" d="M 684 2619 
L 1344 2619 
L 1344 1825 
L 684 1825 
L 684 2619 
z
" transform="scale(0.015625)"/>
       <path id="DejaVuSans-63" d="M 3122 3366 
L 3122 2828 
Q 2878 2963 2633 3030 
Q 2388 3097 2138 3097 
Q 1578 3097 1268 2742 
Q 959 2388 959 1747 
Q 959 1106 1268 751 
Q 1578 397 2138 397 
Q 2388 397 2633 464 
Q 2878 531 3122 666 
L 3122 134 
Q 2881 22 2623 -34 
Q 2366 -91 2075 -91 
Q 1284 -91 818 406 
Q 353 903 353 1747 
Q 353 2603 823 3093 
Q 1294 3584 2113 3584 
Q 2378 3584 2631 3529 
Q 2884 3475 3122 3366 
z
" transform="scale(0.015625)"/>
       <path id="DejaVuSans-6f" d="M 1959 3097 
Q 1497 3097 1228 2736 
Q 959 2375 959 1747 
Q 959 1119 1226 758 
Q 1494 397 1959 397 
Q 2419 397 2687 759 
Q 2956 1122 2956 1747 
Q 2956 2369 2687 2733 
Q 2419 3097 1959 3097 
z
M 1959 3584 
Q 2709 3584 3137 3096 
Q 3566 2609 3566 1747 
Q 3566 888 3137 398 
Q 2709 -91 1959 -91 
Q 1206 -91 779 398 
Q 353 888 353 1747 
Q 353 2609 779 3096 
Q 1206 3584 1959 3584 
z
" transform="scale(0.015625)"/>
       <path id="DejaVuSans-73" d="M 2834 3397 
L 2834 2853 
Q 2591 2978 2328 3040 
Q 2066 3103 1784 3103 
Q 1356 3103 1142 2972 
Q 928 2841 928 2578 
Q 928 2378 1081 2264 
Q 1234 2150 1697 2047 
L 1894 2003 
Q 2506 1872 2764 1633 
Q 3022 1394 3022 966 
Q 3022 478 2636 193 
Q 2250 -91 1575 -91 
Q 1294 -91 989 -36 
Q 684 19 347 128 
L 347 722 
Q 666 556 975 473 
Q 1284 391 1588 391 
Q 1994 391 2212 530 
Q 2431 669 2431 922 
Q 2431 1156 2273 1281 
Q 2116 1406 1581 1522 
L 1381 1569 
Q 847 1681 609 1914 
Q 372 2147 372 2553 
Q 372 3047 722 3315 
Q 1072 3584 1716 3584 
Q 2034 3584 2315 3537 
Q 2597 3491 2834 3397 
z
" transform="scale(0.015625)"/>
       <path id="DejaVuSans-31" d="M 794 531 
L 1825 531 
L 1825 4091 
L 703 3866 
L 703 4441 
L 1819 4666 
L 2450 4666 
L 2450 531 
L 3481 531 
L 3481 0 
L 794 0 
L 794 531 
z
" transform="scale(0.015625)"/>
       <path id="DejaVuSans-38" d="M 2034 2216 
Q 1584 2216 1326 1975 
Q 1069 1734 1069 1313 
Q 1069 891 1326 650 
Q 1584 409 2034 409 
Q 2484 409 2743 651 
Q 3003 894 3003 1313 
Q 3003 1734 2745 1975 
Q 2488 2216 2034 2216 
z
M 1403 2484 
Q 997 2584 770 2862 
Q 544 3141 544 3541 
Q 544 4100 942 4425 
Q 1341 4750 2034 4750 
Q 2731 4750 3128 4425 
Q 3525 4100 3525 3541 
Q 3525 3141 3298 2862 
Q 3072 2584 2669 2484 
Q 3125 2378 3379 2068 
Q 3634 1759 3634 1313 
Q 3634 634 3220 271 
Q 2806 -91 2034 -91 
Q 1263 -91 848 271 
Q 434 634 434 1313 
Q 434 1759 690 2068 
Q 947 2378 1403 2484 
z
M 1172 3481 
Q 1172 3119 1398 2916 
Q 1625 2713 2034 2713 
Q 2441 2713 2670 2916 
Q 2900 3119 2900 3481 
Q 2900 3844 2670 4047 
Q 2441 4250 2034 4250 
Q 1625 4250 1398 4047 
Q 1172 3844 1172 3481 
z
" transform="scale(0.015625)"/>
       <path id="DejaVuSans-34" d="M 2419 4116 
L 825 1625 
L 2419 1625 
L 2419 4116 
z
M 2253 4666 
L 3047 4666 
L 3047 1625 
L 3713 1625 
L 3713 1100 
L 3047 1100 
L 3047 0 
L 2419 0 
L 2419 1100 
L 313 1100 
L 313 1709 
L 2253 4666 
z
" transform="scale(0.015625)"/>
       <path id="DejaVuSans-39" d="M 703 97 
L 703 672 
Q 941 559 1184 500 
Q 1428 441 1663 441 
Q 2288 441 2617 861 
Q 2947 1281 2994 2138 
Q 2813 1869 2534 1725 
Q 2256 1581 1919 1581 
Q 1219 1581 811 2004 
Q 403 2428 403 3163 
Q 403 3881 828 4315 
Q 1253 4750 1959 4750 
Q 2769 4750 3195 4129 
Q 3622 3509 3622 2328 
Q 3622 1225 3098 567 
Q 2575 -91 1691 -91 
Q 1453 -91 1209 -44 
Q 966 3 703 97 
z
M 1959 2075 
Q 2384 2075 2632 2365 
Q 2881 2656 2881 3163 
Q 2881 3666 2632 3958 
Q 2384 4250 1959 4250 
Q 1534 4250 1286 3958 
Q 1038 3666 1038 3163 
Q 1038 2656 1286 2365 
Q 1534 2075 1959 2075 
z
" transform="scale(0.015625)"/>
       <path id="DejaVuSans-36" d="M 2113 2584 
Q 1688 2584 1439 2293 
Q 1191 2003 1191 1497 
Q 1191 994 1439 701 
Q 1688 409 2113 409 
Q 2538 409 2786 701 
Q 3034 994 3034 1497 
Q 3034 2003 2786 2293 
Q 2538 2584 2113 2584 
z
M 3366 4563 
L 3366 3988 
Q 3128 4100 2886 4159 
Q 2644 4219 2406 4219 
Q 1781 4219 1451 3797 
Q 1122 3375 1075 2522 
Q 1259 2794 1537 2939 
Q 1816 3084 2150 3084 
Q 2853 3084 3261 2657 
Q 3669 2231 3669 1497 
Q 3669 778 3244 343 
Q 2819 -91 2113 -91 
Q 1303 -91 875 529 
Q 447 1150 447 2328 
Q 447 3434 972 4092 
Q 1497 4750 2381 4750 
Q 2619 4750 2861 4703 
Q 3103 4656 3366 4563 
z
" transform="scale(0.015625)"/>
       <path id="DejaVuSans-30" d="M 2034 4250 
Q 1547 4250 1301 3770 
Q 1056 3291 1056 2328 
Q 1056 1369 1301 889 
Q 1547 409 2034 409 
Q 2525 409 2770 889 
Q 3016 1369 3016 2328 
Q 3016 3291 2770 3770 
Q 2525 4250 2034 4250 
z
M 2034 4750 
Q 2819 4750 3233 4129 
Q 3647 3509 3647 2328 
Q 3647 1150 3233 529 
Q 2819 -91 2034 -91 
Q 1250 -91 836 529 
Q 422 1150 422 2328 
Q 422 3509 836 4129 
Q 1250 4750 2034 4750 
z
" transform="scale(0.015625)"/>
       <path id="DejaVuSans-Oblique-71" d="M 2669 525 
Q 2438 222 2123 65 
Q 1809 -91 1428 -91 
Q 897 -91 595 267 
Q 294 625 294 1253 
Q 294 1759 480 2231 
Q 666 2703 1013 3078 
Q 1238 3322 1530 3453 
Q 1822 3584 2144 3584 
Q 2531 3584 2781 3431 
Q 3031 3278 3144 2969 
L 3244 3494 
L 3822 3494 
L 2888 -1319 
L 2309 -1319 
L 2669 525 
z
M 891 1338 
Q 891 875 1084 633 
Q 1278 391 1644 391 
Q 2188 391 2572 911 
Q 2956 1431 2956 2175 
Q 2956 2625 2757 2864 
Q 2559 3103 2188 3103 
Q 1916 3103 1684 2976 
Q 1453 2850 1281 2606 
Q 1100 2350 995 2006 
Q 891 1663 891 1338 
z
" transform="scale(0.015625)"/>
      </defs>
      <use xlink:href="#DejaVuSans-Oblique-79" transform="translate(0 0.796875)"/>
      <use xlink:href="#DejaVuSans-2b" transform="translate(72.817383 -15.609375) scale(0.7)"/>
      <use xlink:href="#DejaVuSans-28" transform="translate(147.841797 0.796875)"/>
      <use xlink:href="#DejaVuSans-Oblique-78" transform="translate(186.855469 0.796875)"/>
      <use xlink:href="#DejaVuSans-29" transform="translate(246.035156 0.796875)"/>
      <use xlink:href="#DejaVuSans-3d" transform="translate(304.53125 0.796875)"/>
      <use xlink:href="#DejaVuSans-32" transform="translate(407.802734 0.796875)"/>
      <use xlink:href="#DejaVuSans-2e" transform="translate(471.425781 0.796875)"/>
      <use xlink:href="#DejaVuSans-35" transform="translate(503.212891 0.796875)"/>
      <use xlink:href="#DejaVuSans-22c5" transform="translate(586.318359 0.796875)"/>
      <use xlink:href="#DejaVuSans-63" transform="translate(637.587891 0.796875)"/>
      <use xlink:href="#DejaVuSans-6f" transform="translate(692.568359 0.796875)"/>
      <use xlink:href="#DejaVuSans-73" transform="translate(753.75 0.796875)"/>
      <use xlink:href="#DejaVuSans-28" transform="translate(805.849609 0.796875)"/>
      <use xlink:href="#DejaVuSans-31" transform="translate(844.863281 0.796875)"/>
      <use xlink:href="#DejaVuSans-38" transform="translate(908.486328 0.796875)"/>
      <use xlink:href="#DejaVuSans-2e" transform="translate(972.109375 0.796875)"/>
      <use xlink:href="#DejaVuSans-38" transform="translate(1001.271484 0.796875)"/>
      <use xlink:href="#DejaVuSans-34" transform="translate(1064.894531 0.796875)"/>
      <use xlink:href="#DejaVuSans-39" transform="translate(1128.517578 0.796875)"/>
      <use xlink:href="#DejaVuSans-36" transform="translate(1192.140625 0.796875)"/>
      <use xlink:href="#DejaVuSans-22c5" transform="translate(1275.246094 0.796875)"/>
      <use xlink:href="#DejaVuSans-Oblique-78" transform="translate(1326.515625 0.796875)"/>
      <use xlink:href="#DejaVuSans-29" transform="translate(1385.695312 0.796875)"/>
      <use xlink:href="#DejaVuSans-2b" transform="translate(1444.191406 0.796875)"/>
      <use xlink:href="#DejaVuSans-31" transform="translate(1547.462891 0.796875)"/>
      <use xlink:href="#DejaVuSans-2e" transform="translate(1611.085938 0.796875)"/>
      <use xlink:href="#DejaVuSans-30" transform="translate(1642.873047 0.796875)"/>
      <use xlink:href="#DejaVuSans-22c5" transform="translate(1725.978516 0.796875)"/>
      <use xlink:href="#DejaVuSans-Oblique-71" transform="translate(1777.248047 0.796875)"/>
      <use xlink:href="#DejaVuSans-28" transform="translate(1840.724609 0.796875)"/>
      <use xlink:href="#DejaVuSans-Oblique-78" transform="translate(1879.738281 0.796875)"/>
      <use xlink:href="#DejaVuSans-29" transform="translate(1938.917969 0.796875)"/>
      <use xlink:href="#DejaVuSans-2b" transform="translate(1997.414062 0.796875)"/>
      <use xlink:href="#DejaVuSans-32" transform="translate(2100.685547 0.796875)"/>
      <use xlink:href="#DejaVuSans-2e" transform="translate(2164.308594 0.796875)"/>
      <use xlink:href="#DejaVuSans-35" transform="translate(2196.095703 0.796875)"/>
      <use xlink:href="#GoogleSans-Regular-20" transform="translate(2259.71875 0.796875)"/>
      <use xlink:href="#GoogleSans-Regular-5b" transform="translate(2282.918747 0.796875)"/>
      <use xlink:href="#GoogleSans-Regular-6d" transform="translate(2314.718735 0.796875)"/>
      <use xlink:href="#GoogleSans-Regular-6d" transform="translate(2402.318726 0.796875)"/>
      <use xlink:href="#GoogleSans-Regular-5d" transform="translate(2489.918716 0.796875)"/>
     </g>
    </g>
   </g>
  </g>
 </g>
 <defs>
  <clipPath id="pa0717da1f9">
   <rect x="37.027656" y="24.036875" width="665.697019" height="5.120746"/>
  </clipPath>
 </defs>
</svg>
